REM DIRINDEX 1\2\6,1\2\7,1\2\8,1\3\9,1\3\10,1\3\11,1\4\12,1\4\13,1\4\14,1\5\15,1\5\16,1\5\17,1\5\18
REM DIRNAME folder01,folder02,folder03,folder04,folder05,folder06,folder07,folder08,folder09,folder10,folder11,folder12,folder13,folder14,folder15,folder16,folder17,folder18
TITLE ""
FILE "2Q_t_0880-0897.mp3" MP3
  TRACK 01 AUDIO
    TITLE "13:cjc019_3821"
    INDEX 01 00:00:00
  TRACK 02 AUDIO
    TITLE "0:"
    INDEX 01 00:01:22
  TRACK 03 AUDIO
    TITLE "14:cjc019_3822"
    INDEX 01 00:02:04
  TRACK 04 AUDIO
    TITLE "0:"
    INDEX 01 00:06:37
  TRACK 05 AUDIO
    TITLE "13:cjc019_3823"
    INDEX 01 00:07:11
  TRACK 06 AUDIO
    TITLE "0:"
    INDEX 01 00:08:28
  TRACK 07 AUDIO
    TITLE "14:cjc019_3824"
    INDEX 01 00:09:10
  TRACK 08 AUDIO
    TITLE "0:"
    INDEX 01 00:12:14
  TRACK 09 AUDIO
    TITLE "13:cjc019_3825"
    INDEX 01 00:12:65
  TRACK 10 AUDIO
    TITLE "0:"
    INDEX 01 00:13:71
  TRACK 11 AUDIO
    TITLE "14:cjc019_3826"
    INDEX 01 00:14:54
  TRACK 12 AUDIO
    TITLE "0:"
    INDEX 01 00:19:32
  TRACK 13 AUDIO
    TITLE "13:cjc019_3827"
    INDEX 01 00:20:08
  TRACK 14 AUDIO
    TITLE "0:"
    INDEX 01 00:21:29
  TRACK 15 AUDIO
    TITLE "14:cjc019_3828"
    INDEX 01 00:22:07
  TRACK 16 AUDIO
    TITLE "0:"
    INDEX 01 00:27:02
  TRACK 17 AUDIO
    TITLE "13:cjc019_3829"
    INDEX 01 00:27:61
  TRACK 18 AUDIO
    TITLE "0:"
    INDEX 01 00:29:03
  TRACK 19 AUDIO
    TITLE "14:cjc019_3830"
    INDEX 01 00:29:58
  TRACK 20 AUDIO
    TITLE "0:"
    INDEX 01 00:32:56
  TRACK 21 AUDIO
    TITLE "13:cjc019_3831"
    INDEX 01 00:33:36
  TRACK 22 AUDIO
    TITLE "0:"
    INDEX 01 00:34:49
  TRACK 23 AUDIO
    TITLE "14:cjc019_3832"
    INDEX 01 00:35:33
  TRACK 24 AUDIO
    TITLE "0:"
    INDEX 01 00:38:06
  TRACK 25 AUDIO
    TITLE "13:cjc019_3833"
    INDEX 01 00:38:65
  TRACK 26 AUDIO
    TITLE "0:"
    INDEX 01 00:40:03
  TRACK 27 AUDIO
    TITLE "14:cjc019_3834"
    INDEX 01 00:40:62
  TRACK 28 AUDIO
    TITLE "0:"
    INDEX 01 00:45:45
  TRACK 29 AUDIO
    TITLE "13:cjc019_3835"
    INDEX 01 00:46:23
  TRACK 30 AUDIO
    TITLE "0:"
    INDEX 01 00:47:42
  TRACK 31 AUDIO
    TITLE "14:cjc019_3836"
    INDEX 01 00:48:34
  TRACK 32 AUDIO
    TITLE "0:"
    INDEX 01 00:50:68
  TRACK 33 AUDIO
    TITLE "13:cjc019_3837"
    INDEX 01 00:51:52
  TRACK 34 AUDIO
    TITLE "0:"
    INDEX 01 00:52:59
  TRACK 35 AUDIO
    TITLE "14:cjc019_3838"
    INDEX 01 00:53:49
  TRACK 36 AUDIO
    TITLE "0:"
    INDEX 01 00:56:51
  TRACK 37 AUDIO
    TITLE "13:cjc019_3839"
    INDEX 01 00:57:37
  TRACK 38 AUDIO
    TITLE "0:"
    INDEX 01 00:59:00
  TRACK 39 AUDIO
    TITLE "14:cjc019_3840"
    INDEX 01 00:59:51
  TRACK 40 AUDIO
    TITLE "0:"
    INDEX 01 01:02:71
  TRACK 41 AUDIO
    TITLE "13:cjc019_3841"
    INDEX 01 01:03:51
  TRACK 42 AUDIO
    TITLE "0:"
    INDEX 01 01:04:72
  TRACK 43 AUDIO
    TITLE "14:cjc019_3842"
    INDEX 01 01:05:52
  TRACK 44 AUDIO
    TITLE "0:"
    INDEX 01 01:07:17
  TRACK 45 AUDIO
    TITLE "13:cjc019_3843"
    INDEX 01 01:07:72
  TRACK 46 AUDIO
    TITLE "0:"
    INDEX 01 01:09:16
  TRACK 47 AUDIO
    TITLE "14:cjc019_3844"
    INDEX 01 01:10:00
  TRACK 48 AUDIO
    TITLE "0:"
    INDEX 01 01:14:35
  TRACK 49 AUDIO
    TITLE "13:cjc019_3845"
    INDEX 01 01:15:21
  TRACK 50 AUDIO
    TITLE "0:"
    INDEX 01 01:16:42
  TRACK 51 AUDIO
    TITLE "14:cjc019_3846"
    INDEX 01 01:17:26
  TRACK 52 AUDIO
    TITLE "0:"
    INDEX 01 01:18:56
  TRACK 53 AUDIO
    TITLE "13:cjc019_3847"
    INDEX 01 01:19:36
  TRACK 54 AUDIO
    TITLE "0:"
    INDEX 01 01:20:36
  TRACK 55 AUDIO
    TITLE "14:cjc019_3848"
    INDEX 01 01:21:18
  TRACK 56 AUDIO
    TITLE "0:"
    INDEX 01 01:24:00
  TRACK 57 AUDIO
    TITLE "13:cjc019_3849"
    INDEX 01 01:24:55
  TRACK 58 AUDIO
    TITLE "0:"
    INDEX 01 01:25:70
  TRACK 59 AUDIO
    TITLE "14:cjc019_3850"
    INDEX 01 01:26:54
  TRACK 60 AUDIO
    TITLE "0:"
    INDEX 01 01:28:00
  TRACK 61 AUDIO
    TITLE "13:cjc019_3851"
    INDEX 01 01:28:57
  TRACK 62 AUDIO
    TITLE "0:"
    INDEX 01 01:29:66
  TRACK 63 AUDIO
    TITLE "14:cjc019_3852"
    INDEX 01 01:30:50
  TRACK 64 AUDIO
    TITLE "0:"
    INDEX 01 01:33:66
  TRACK 65 AUDIO
    TITLE "13:cjc019_3853"
    INDEX 01 01:34:42
  TRACK 66 AUDIO
    TITLE "0:"
    INDEX 01 01:35:51
  TRACK 67 AUDIO
    TITLE "14:cjc019_3854"
    INDEX 01 01:36:29
  TRACK 68 AUDIO
    TITLE "0:"
    INDEX 01 01:38:02
  TRACK 69 AUDIO
    TITLE "13:cjc019_3855"
    INDEX 01 01:38:49
  TRACK 70 AUDIO
    TITLE "0:"
    INDEX 01 01:39:61
  TRACK 71 AUDIO
    TITLE "14:cjc019_3856"
    INDEX 01 01:40:44
  TRACK 72 AUDIO
    TITLE "0:"
    INDEX 01 01:43:51
